G04 start of page 6 for group -4063 idx -4063 *
G04 Title: (unknown), componentmask *
G04 Creator: pcb 20110918 *
G04 CreationDate: Mon Jul 30 19:20:07 2012 UTC *
G04 For: frankenteddy *
G04 Format: Gerber/RS-274X *
G04 PCB-Dimensions: 259500 348500 *
G04 PCB-Coordinate-Origin: lower left *
%MOIN*%
%FSLAX25Y25*%
%LNTOPMASK*%
%ADD59C,0.1700*%
%ADD58C,0.0001*%
%ADD57C,0.0660*%
%ADD56C,0.0910*%
%ADD55C,0.1044*%
%ADD54C,0.1000*%
%ADD53C,0.0800*%
%ADD52C,0.0760*%
G54D52*X154500Y269000D03*
X144500D03*
X134500D03*
G54D53*X58388Y232388D03*
Y222388D03*
G54D52*X71986Y213486D03*
G54D54*X49000Y241900D03*
G54D53*X176388Y210888D03*
Y200888D03*
X164388Y210888D03*
Y200888D03*
X118388Y210888D03*
Y200888D03*
X151500Y206000D03*
X131500D03*
X141500D03*
G54D52*X124500Y269000D03*
X114500D03*
X104500D03*
X94500D03*
X84500D03*
G54D55*X80000Y291000D03*
X66220D03*
G54D52*X51000D03*
X74500Y269000D03*
X64500D03*
G54D54*X49000Y267500D03*
G54D55*X107500Y291000D03*
X93720D03*
X135000D03*
X121220D03*
X148720D03*
X162500D03*
G54D56*X12000Y255000D03*
G54D52*X32000D03*
G54D57*X22500Y270000D03*
X32500D03*
X12500D03*
X32500Y280000D03*
G54D55*X40220Y326500D03*
G54D53*X37500Y303000D03*
G54D57*X22500Y280000D03*
X12500D03*
G54D52*X23500Y305000D03*
G54D58*G36*
X43500Y307000D02*Y299000D01*
X51500D01*
Y307000D01*
X43500D01*
G37*
G54D52*X23500Y315000D03*
X13500D03*
Y305000D03*
X11000Y291000D03*
G54D53*X170500Y79000D03*
X160500D03*
X150500D03*
X140500D03*
X130500D03*
X120500D03*
X110500D03*
G54D55*X164000Y57500D03*
X177780D03*
X136500D03*
X109000D03*
X122780D03*
X150280D03*
G54D53*X190500Y79000D03*
X200500D03*
G54D55*X191500Y57500D03*
G54D53*X230500Y79000D03*
G54D52*X227000Y30500D03*
Y20500D03*
Y10500D03*
G54D53*X240500Y79000D03*
X210500D03*
X220500D03*
G54D55*X205280Y57500D03*
X219000D03*
X232780D03*
G54D52*X215000Y10500D03*
X205000D03*
X195000D03*
X185000D03*
X175000D03*
X165000D03*
X155000D03*
X145000D03*
X135000D03*
X125000D03*
X115000D03*
X215000Y20500D03*
X205000D03*
X195000D03*
X185000D03*
X175000D03*
X165000D03*
X155000D03*
X145000D03*
X135000D03*
X125000D03*
X115000D03*
X215000Y30500D03*
X205000D03*
X195000D03*
X185000D03*
X175000D03*
X165000D03*
X155000D03*
X145000D03*
X135000D03*
X125000D03*
X115000D03*
G54D53*X100500Y79000D03*
X58612Y82888D03*
X68612D03*
X45888Y83112D03*
X35888D03*
X23388D03*
X13388D03*
G54D58*G36*
X10200Y68800D02*Y61200D01*
X17800D01*
Y68800D01*
X10200D01*
G37*
G36*
Y48800D02*Y41200D01*
X17800D01*
Y48800D01*
X10200D01*
G37*
G36*
Y58800D02*Y51200D01*
X17800D01*
Y58800D01*
X10200D01*
G37*
G54D52*X80500Y166500D03*
G54D58*G36*
X76700Y130300D02*Y122700D01*
X84300D01*
Y130300D01*
X76700D01*
G37*
G36*
X59500Y103500D02*Y95500D01*
X67500D01*
Y103500D01*
X59500D01*
G37*
G54D53*X63500Y109500D03*
X83500Y114500D03*
Y104500D03*
Y94500D03*
G54D52*X71986Y173486D03*
G54D58*G36*
X56000Y177500D02*Y169500D01*
X64000D01*
Y177500D01*
X56000D01*
G37*
G54D53*X60000Y183500D03*
X106500Y189000D03*
X96500D03*
Y159000D03*
X106500D03*
G54D59*X52000Y127500D03*
X64500Y145500D03*
X39500D03*
G54D58*G36*
X37000Y103500D02*Y95500D01*
X45000D01*
Y103500D01*
X37000D01*
G37*
G54D53*X41000Y109500D03*
G54D58*G36*
X14500Y103500D02*Y95500D01*
X22500D01*
Y103500D01*
X14500D01*
G37*
G54D53*X18500Y109500D03*
G54D58*G36*
X38500Y176500D02*Y168500D01*
X46500D01*
Y176500D01*
X38500D01*
G37*
G54D53*X42500Y182500D03*
Y192500D03*
Y202500D03*
Y212500D03*
Y222500D03*
G54D56*X12000Y235000D03*
G54D52*X32000D03*
X34000Y8000D03*
Y18000D03*
G54D55*X48000Y17500D03*
X61780D03*
G54D52*X34000Y28000D03*
G54D55*X75500Y17500D03*
X89280D03*
G54D52*X105000Y10500D03*
Y20500D03*
Y30500D03*
G54D55*X54000Y326500D03*
G54D52*X71000Y328000D03*
Y338000D03*
X81000D03*
Y328000D03*
X71000Y318000D03*
X81000D03*
X111000Y338000D03*
X121000D03*
X131000D03*
X141000D03*
X111000Y328000D03*
X121000D03*
X131000D03*
X91000Y338000D03*
X101000D03*
X91000Y328000D03*
X101000D03*
X91000Y318000D03*
X101000D03*
X111000D03*
X121000D03*
X131000D03*
X141000D03*
X151000D03*
X161000D03*
X171000D03*
X141000Y328000D03*
X151000D03*
X161000D03*
X171000D03*
X211000Y338000D03*
X201000D03*
X223000D03*
X211000Y328000D03*
Y318000D03*
X151000Y338000D03*
X161000D03*
X171000D03*
X181000D03*
X191000D03*
X181000Y328000D03*
X191000D03*
X201000D03*
X223000D03*
X181000Y318000D03*
X191000D03*
X201000D03*
X223000D03*
G54D53*X240500Y269000D03*
X230500D03*
X220500D03*
X210500D03*
X200500D03*
X190500D03*
X180500D03*
X170500D03*
G54D55*X190000Y291000D03*
X203700D03*
X176220D03*
X217480D03*
X244980D03*
X231200D03*
G54D58*G36*
X237500Y158000D02*Y150000D01*
X245500D01*
Y158000D01*
X237500D01*
G37*
G54D52*X241514Y165514D03*
Y205514D03*
G54D53*X251500Y154000D03*
Y144000D03*
Y134000D03*
X241500Y144000D03*
Y134000D03*
G54D58*G36*
X222500Y193000D02*Y185000D01*
X230500D01*
Y193000D01*
X222500D01*
G37*
G54D53*X226500Y159000D03*
X216500Y189000D03*
X206500D03*
X196500D03*
X186500D03*
X176500D03*
X166500D03*
X156500D03*
X146500D03*
X136500D03*
Y159000D03*
X126500Y189000D03*
Y159000D03*
X116500Y189000D03*
Y159000D03*
X146500D03*
X156500D03*
X166500D03*
X176500D03*
X186500D03*
X196500D03*
X206500D03*
X216500D03*
M02*
