M48
INCH
T51C0.013
T50C0.110
T49C0.045
T48C0.051
T47C0.051
T46C0.035
%
T51
X002950Y004350
X002750Y013000
X006150Y026200
X009250Y017650
X010400Y017650
X011400Y017250
X009200Y017250
X001800Y013950
X010150Y018050
X007200Y018800
X021550Y013100
X014000Y014850
X009150Y016850
X022200Y027600
X022750Y028150
X012400Y016850
T46
X011450Y026900
X010450Y026900
X009450Y026900
X008450Y026900
X005100Y029100
X007450Y026900
X006450Y026900
X003200Y025500
X002250Y027000
X003250Y027000
X001250Y027000
X003250Y028000
X003750Y030300
X002250Y028000
X001250Y028000
X002350Y030500
X004750Y030300
X002350Y031500
X001350Y031500
X001350Y030500
X001100Y029100
X017050Y007900
X016050Y007900
X015050Y007900
X014050Y007900
X013050Y007900
X012050Y007900
X011050Y007900
X014650Y018900
X014450Y026900
X013450Y026900
X005839Y023239
X005839Y022239
X007199Y021349
X017639Y021089
X017639Y020089
X016439Y021089
X016439Y020089
X011839Y021089
X011839Y020089
X015150Y020600
X013150Y020600
X014150Y020600
X012450Y026900
X020100Y032800
X022300Y032800
X018100Y031800
X019100Y031800
X020100Y031800
X022300Y031800
X024050Y026900
X023050Y026900
X022050Y026900
X021050Y026900
X020050Y026900
X019050Y026900
X018050Y026900
X017050Y026900
X024150Y015400
X024151Y016551
X024151Y020551
X025150Y015400
X025150Y014400
X025150Y013400
X024150Y014400
X024150Y013400
X022650Y018900
X022650Y015900
X021650Y018900
X020650Y018900
X019650Y018900
X018650Y018900
X017650Y018900
X016650Y018900
X015650Y018900
X015450Y026900
X013650Y018900
X013650Y015900
X012650Y018900
X012650Y015900
X011650Y018900
X011650Y015900
X014650Y015900
X015650Y015900
X016650Y015900
X017650Y015900
X018650Y015900
X019650Y015900
X020650Y015900
X021650Y015900
X019050Y007900
X020050Y007900
X023050Y007900
X022700Y003050
X022700Y002050
X022700Y001050
X024050Y007900
X021050Y007900
X022050Y007900
X021500Y001050
X020500Y001050
X019500Y001050
X018500Y001050
X017500Y001050
X016500Y001050
X015500Y001050
X014500Y001050
X013500Y001050
X012500Y001050
X011500Y001050
X021500Y002050
X020500Y002050
X019500Y002050
X018500Y002050
X017500Y002050
X016500Y002050
X015500Y002050
X014500Y002050
X013500Y002050
X012500Y002050
X011500Y002050
X021500Y003050
X020500Y003050
X019500Y003050
X018500Y003050
X017500Y003050
X016500Y003050
X015500Y003050
X014500Y003050
X013500Y003050
X012500Y003050
X011500Y003050
X010050Y007900
X005861Y008289
X006861Y008289
X004589Y008311
X003589Y008311
X002339Y008311
X001339Y008311
X006350Y009950
X006350Y010950
X008350Y011450
X008350Y010450
X008350Y009450
X007199Y017349
X006000Y017350
X006000Y018350
X010650Y018900
X009650Y018900
X009650Y015900
X010650Y015900
X004100Y009950
X004100Y010950
X001850Y009950
X001850Y010950
X004250Y017250
X004250Y018250
X004250Y019250
X004250Y020250
X004250Y021250
X004250Y022250
X003200Y023500
X003400Y000800
X003400Y001800
X003400Y002800
X010500Y001050
X010500Y002050
X010500Y003050
X007100Y032800
X007100Y033800
X008100Y033800
X008100Y032800
X007100Y031800
X008100Y031800
X011100Y033800
X012100Y033800
X013100Y033800
X014100Y033800
X011100Y032800
X012100Y032800
X013100Y032800
X009100Y033800
X010100Y033800
X009100Y032800
X010100Y032800
X009100Y031800
X010100Y031800
X011100Y031800
X012100Y031800
X013100Y031800
X014100Y031800
X015100Y031800
X016100Y031800
X017100Y031800
X014100Y032800
X015100Y032800
X016100Y032800
X017100Y032800
X021100Y033800
X020100Y033800
X022300Y033800
X021100Y032800
X021100Y031800
X015100Y033800
X016100Y033800
X017100Y033800
X018100Y033800
X019100Y033800
X018100Y032800
X019100Y032800
T49
X008050Y012650
X001400Y006500
X001400Y004500
X001400Y005500
X008050Y016650
T47
X004900Y024190
X004900Y026750
X001200Y025500
X001200Y023500
T48
X010900Y005750
X020528Y005750
X021900Y005750
X023278Y005750
X005400Y032650
X013650Y005750
X017778Y005750
X016400Y005750
X004022Y032650
X019000Y029100
X020370Y029100
X017622Y029100
X021748Y029100
X024498Y029100
X012122Y029100
X015028Y005750
X006622Y029100
X008000Y029100
X019150Y005750
X004800Y001750
X006178Y001750
X007550Y001750
X008928Y001750
X023120Y029100
X016250Y029100
X014872Y029100
X012278Y005750
X013500Y029100
X009372Y029100
X010750Y029100
T50
X001450Y001450
X006450Y014550
X003950Y014550
X005200Y012750
X024500Y033400
X001450Y033400
X024500Y001450
M30
