G04 start of page 10 for group -3984 idx -3984 *
G04 Title: (unknown), fab *
G04 Creator: pcb 20110918 *
G04 CreationDate: Mon Jul 30 19:20:07 2012 UTC *
G04 For: frankenteddy *
G04 Format: Gerber/RS-274X *
G04 PCB-Dimensions: 259500 348500 *
G04 PCB-Coordinate-Origin: lower left *
%MOIN*%
%FSLAX25Y25*%
%LNFAB*%
%ADD79C,0.0100*%
%ADD78C,0.0075*%
%ADD77C,0.0060*%
%ADD76C,0.0080*%
G54D76*X62900Y147100D02*X66100D01*
X62900D02*Y143900D01*
X66100D01*
Y147100D02*Y143900D01*
X37900Y147100D02*X41100D01*
X37900D02*Y143900D01*
X41100D01*
Y147100D02*Y143900D01*
X50400Y129100D02*X53600D01*
X50400D02*Y125900D01*
X53600D01*
Y129100D02*Y125900D01*
X12900Y16100D02*X16100D01*
X12900D02*Y12900D01*
X16100D01*
Y16100D02*Y12900D01*
X243400Y16100D02*X246600D01*
X243400D02*Y12900D01*
X246600D01*
Y16100D02*Y12900D01*
X243400Y335600D02*X246600D01*
X243400D02*Y332400D01*
X246600D01*
Y335600D02*Y332400D01*
X12900Y335600D02*X16100D01*
X12900D02*Y332400D01*
X16100D01*
Y335600D02*Y332400D01*
X13400Y361350D02*X16600D01*
X13400D02*Y358150D01*
X16600D01*
Y361350D02*Y358150D01*
G54D77*X135000Y362000D02*X136500Y359000D01*
X138000Y362000D01*
X136500Y359000D02*Y356000D01*
X139800Y359300D02*X142050D01*
X139800Y356000D02*X142800D01*
X139800Y362000D02*Y356000D01*
Y362000D02*X142800D01*
X147600D02*X148350Y361250D01*
X145350Y362000D02*X147600D01*
X144600Y361250D02*X145350Y362000D01*
X144600Y361250D02*Y359750D01*
X145350Y359000D01*
X147600D01*
X148350Y358250D01*
Y356750D01*
X147600Y356000D02*X148350Y356750D01*
X145350Y356000D02*X147600D01*
X144600Y356750D02*X145350Y356000D01*
X98750D02*X101750Y362000D01*
X98000D02*X101750D01*
X45000Y356750D02*X45750Y356000D01*
X45000Y361250D02*Y356750D01*
Y361250D02*X45750Y362000D01*
X47250D01*
X48000Y361250D01*
Y356750D01*
X47250Y356000D02*X48000Y356750D01*
X45750Y356000D02*X47250D01*
X45000Y357500D02*X48000Y360500D01*
X49800Y356000D02*X50550D01*
X52350Y360800D02*X53550Y362000D01*
Y356000D01*
X52350D02*X54600D01*
X56400Y360800D02*X57600Y362000D01*
Y356000D01*
X56400D02*X58650D01*
X60450Y356750D02*X61200Y356000D01*
X60450Y361250D02*Y356750D01*
Y361250D02*X61200Y362000D01*
X62700D01*
X63450Y361250D01*
Y356750D01*
X62700Y356000D02*X63450Y356750D01*
X61200Y356000D02*X62700D01*
X60450Y357500D02*X63450Y360500D01*
X11200Y255000D02*G75*G03X12800Y255000I800J0D01*G01*
G75*G03X11200Y255000I-800J0D01*G01*
Y235000D02*G75*G03X12800Y235000I800J0D01*G01*
G75*G03X11200Y235000I-800J0D01*G01*
X48200Y267500D02*G75*G03X49800Y267500I800J0D01*G01*
G75*G03X48200Y267500I-800J0D01*G01*
Y241900D02*G75*G03X49800Y241900I800J0D01*G01*
G75*G03X48200Y241900I-800J0D01*G01*
X53200Y326500D02*G75*G03X54800Y326500I800J0D01*G01*
G75*G03X53200Y326500I-800J0D01*G01*
X39420D02*G75*G03X41020Y326500I800J0D01*G01*
G75*G03X39420Y326500I-800J0D01*G01*
X79200Y291000D02*G75*G03X80800Y291000I800J0D01*G01*
G75*G03X79200Y291000I-800J0D01*G01*
X65420D02*G75*G03X67020Y291000I800J0D01*G01*
G75*G03X65420Y291000I-800J0D01*G01*
X106700D02*G75*G03X108300Y291000I800J0D01*G01*
G75*G03X106700Y291000I-800J0D01*G01*
X92920D02*G75*G03X94520Y291000I800J0D01*G01*
G75*G03X92920Y291000I-800J0D01*G01*
X134200D02*G75*G03X135800Y291000I800J0D01*G01*
G75*G03X134200Y291000I-800J0D01*G01*
X120420D02*G75*G03X122020Y291000I800J0D01*G01*
G75*G03X120420Y291000I-800J0D01*G01*
X161700D02*G75*G03X163300Y291000I800J0D01*G01*
G75*G03X161700Y291000I-800J0D01*G01*
X147920D02*G75*G03X149520Y291000I800J0D01*G01*
G75*G03X147920Y291000I-800J0D01*G01*
X189200D02*G75*G03X190800Y291000I800J0D01*G01*
G75*G03X189200Y291000I-800J0D01*G01*
X175420D02*G75*G03X177020Y291000I800J0D01*G01*
G75*G03X175420Y291000I-800J0D01*G01*
X190700Y57500D02*G75*G03X192300Y57500I800J0D01*G01*
G75*G03X190700Y57500I-800J0D01*G01*
X204480D02*G75*G03X206080Y57500I800J0D01*G01*
G75*G03X204480Y57500I-800J0D01*G01*
X163200D02*G75*G03X164800Y57500I800J0D01*G01*
G75*G03X163200Y57500I-800J0D01*G01*
X176980D02*G75*G03X178580Y57500I800J0D01*G01*
G75*G03X176980Y57500I-800J0D01*G01*
X135700D02*G75*G03X137300Y57500I800J0D01*G01*
G75*G03X135700Y57500I-800J0D01*G01*
X149480D02*G75*G03X151080Y57500I800J0D01*G01*
G75*G03X149480Y57500I-800J0D01*G01*
X218200D02*G75*G03X219800Y57500I800J0D01*G01*
G75*G03X218200Y57500I-800J0D01*G01*
X231980D02*G75*G03X233580Y57500I800J0D01*G01*
G75*G03X231980Y57500I-800J0D01*G01*
X216680Y291000D02*G75*G03X218280Y291000I800J0D01*G01*
G75*G03X216680Y291000I-800J0D01*G01*
X202900D02*G75*G03X204500Y291000I800J0D01*G01*
G75*G03X202900Y291000I-800J0D01*G01*
X244180D02*G75*G03X245780Y291000I800J0D01*G01*
G75*G03X244180Y291000I-800J0D01*G01*
X230400D02*G75*G03X232000Y291000I800J0D01*G01*
G75*G03X230400Y291000I-800J0D01*G01*
X47200Y17500D02*G75*G03X48800Y17500I800J0D01*G01*
G75*G03X47200Y17500I-800J0D01*G01*
X60980D02*G75*G03X62580Y17500I800J0D01*G01*
G75*G03X60980Y17500I-800J0D01*G01*
X74700D02*G75*G03X76300Y17500I800J0D01*G01*
G75*G03X74700Y17500I-800J0D01*G01*
X88480D02*G75*G03X90080Y17500I800J0D01*G01*
G75*G03X88480Y17500I-800J0D01*G01*
X108200Y57500D02*G75*G03X109800Y57500I800J0D01*G01*
G75*G03X108200Y57500I-800J0D01*G01*
X121980D02*G75*G03X123580Y57500I800J0D01*G01*
G75*G03X121980Y57500I-800J0D01*G01*
X14200Y374750D02*G75*G03X15800Y374750I800J0D01*G01*
G75*G03X14200Y374750I-800J0D01*G01*
X135000Y377000D02*X136500Y374000D01*
X138000Y377000D01*
X136500Y374000D02*Y371000D01*
X139800Y374300D02*X142050D01*
X139800Y371000D02*X142800D01*
X139800Y377000D02*Y371000D01*
Y377000D02*X142800D01*
X147600D02*X148350Y376250D01*
X145350Y377000D02*X147600D01*
X144600Y376250D02*X145350Y377000D01*
X144600Y376250D02*Y374750D01*
X145350Y374000D01*
X147600D01*
X148350Y373250D01*
Y371750D01*
X147600Y371000D02*X148350Y371750D01*
X145350Y371000D02*X147600D01*
X144600Y371750D02*X145350Y371000D01*
X98000Y376250D02*X98750Y377000D01*
X100250D01*
X101000Y376250D01*
X100250Y371000D02*X101000Y371750D01*
X98750Y371000D02*X100250D01*
X98000Y371750D02*X98750Y371000D01*
Y374300D02*X100250D01*
X101000Y376250D02*Y375050D01*
Y373550D02*Y371750D01*
Y373550D02*X100250Y374300D01*
X101000Y375050D02*X100250Y374300D01*
X102800Y373250D02*X105800Y377000D01*
X102800Y373250D02*X106550D01*
X105800Y377000D02*Y371000D01*
X45000Y371750D02*X45750Y371000D01*
X45000Y376250D02*Y371750D01*
Y376250D02*X45750Y377000D01*
X47250D01*
X48000Y376250D01*
Y371750D01*
X47250Y371000D02*X48000Y371750D01*
X45750Y371000D02*X47250D01*
X45000Y372500D02*X48000Y375500D01*
X49800Y371000D02*X50550D01*
X52350Y371750D02*X53100Y371000D01*
X52350Y376250D02*Y371750D01*
Y376250D02*X53100Y377000D01*
X54600D01*
X55350Y376250D01*
Y371750D01*
X54600Y371000D02*X55350Y371750D01*
X53100Y371000D02*X54600D01*
X52350Y372500D02*X55350Y375500D01*
X57150Y377000D02*X60150D01*
X57150D02*Y374000D01*
X57900Y374750D01*
X59400D01*
X60150Y374000D01*
Y371750D01*
X59400Y371000D02*X60150Y371750D01*
X57900Y371000D02*X59400D01*
X57150Y371750D02*X57900Y371000D01*
X61950Y375800D02*X63150Y377000D01*
Y371000D01*
X61950D02*X64200D01*
X79300Y167700D02*X81700Y165300D01*
X79300D02*X81700Y167700D01*
X79300Y127700D02*X81700Y125300D01*
X79300D02*X81700Y127700D01*
X12800Y66200D02*X15200Y63800D01*
X12800D02*X15200Y66200D01*
X12800Y46200D02*X15200Y43800D01*
X12800D02*X15200Y46200D01*
X12800Y56200D02*X15200Y53800D01*
X12800D02*X15200Y56200D01*
X13800Y390950D02*X16200Y388550D01*
X13800D02*X16200Y390950D01*
X135000Y392000D02*X136500Y389000D01*
X138000Y392000D01*
X136500Y389000D02*Y386000D01*
X139800Y389300D02*X142050D01*
X139800Y386000D02*X142800D01*
X139800Y392000D02*Y386000D01*
Y392000D02*X142800D01*
X147600D02*X148350Y391250D01*
X145350Y392000D02*X147600D01*
X144600Y391250D02*X145350Y392000D01*
X144600Y391250D02*Y389750D01*
X145350Y389000D01*
X147600D01*
X148350Y388250D01*
Y386750D01*
X147600Y386000D02*X148350Y386750D01*
X145350Y386000D02*X147600D01*
X144600Y386750D02*X145350Y386000D01*
X98000Y392000D02*X101000D01*
X98000D02*Y389000D01*
X98750Y389750D01*
X100250D01*
X101000Y389000D01*
Y386750D01*
X100250Y386000D02*X101000Y386750D01*
X98750Y386000D02*X100250D01*
X98000Y386750D02*X98750Y386000D01*
X45000Y386750D02*X45750Y386000D01*
X45000Y391250D02*Y386750D01*
Y391250D02*X45750Y392000D01*
X47250D01*
X48000Y391250D01*
Y386750D01*
X47250Y386000D02*X48000Y386750D01*
X45750Y386000D02*X47250D01*
X45000Y387500D02*X48000Y390500D01*
X49800Y386000D02*X50550D01*
X52350Y386750D02*X53100Y386000D01*
X52350Y391250D02*Y386750D01*
Y391250D02*X53100Y392000D01*
X54600D01*
X55350Y391250D01*
Y386750D01*
X54600Y386000D02*X55350Y386750D01*
X53100Y386000D02*X54600D01*
X52350Y387500D02*X55350Y390500D01*
X57150Y388250D02*X60150Y392000D01*
X57150Y388250D02*X60900D01*
X60150Y392000D02*Y386000D01*
X62700Y392000D02*X65700D01*
X62700D02*Y389000D01*
X63450Y389750D01*
X64950D01*
X65700Y389000D01*
Y386750D01*
X64950Y386000D02*X65700Y386750D01*
X63450Y386000D02*X64950D01*
X62700Y386750D02*X63450Y386000D01*
X154500Y270600D02*Y267400D01*
X152900Y269000D02*X156100D01*
X144500Y270600D02*Y267400D01*
X142900Y269000D02*X146100D01*
X134500Y270600D02*Y267400D01*
X132900Y269000D02*X136100D01*
X124500Y270600D02*Y267400D01*
X122900Y269000D02*X126100D01*
X114500Y270600D02*Y267400D01*
X112900Y269000D02*X116100D01*
X104500Y270600D02*Y267400D01*
X102900Y269000D02*X106100D01*
X94500Y270600D02*Y267400D01*
X92900Y269000D02*X96100D01*
X84500Y270600D02*Y267400D01*
X82900Y269000D02*X86100D01*
X74500Y270600D02*Y267400D01*
X72900Y269000D02*X76100D01*
X64500Y270600D02*Y267400D01*
X62900Y269000D02*X66100D01*
X170500Y80600D02*Y77400D01*
X168900Y79000D02*X172100D01*
X160500Y80600D02*Y77400D01*
X158900Y79000D02*X162100D01*
X150500Y80600D02*Y77400D01*
X148900Y79000D02*X152100D01*
X140500Y80600D02*Y77400D01*
X138900Y79000D02*X142100D01*
X130500Y80600D02*Y77400D01*
X128900Y79000D02*X132100D01*
X120500Y80600D02*Y77400D01*
X118900Y79000D02*X122100D01*
X110500Y80600D02*Y77400D01*
X108900Y79000D02*X112100D01*
X100500Y80600D02*Y77400D01*
X98900Y79000D02*X102100D01*
X241500Y155600D02*Y152400D01*
X239900Y154000D02*X243100D01*
X251500Y155600D02*Y152400D01*
X249900Y154000D02*X253100D01*
X241500Y145600D02*Y142400D01*
X239900Y144000D02*X243100D01*
X251500Y145600D02*Y142400D01*
X249900Y144000D02*X253100D01*
X241500Y135600D02*Y132400D01*
X239900Y134000D02*X243100D01*
X251500Y135600D02*Y132400D01*
X249900Y134000D02*X253100D01*
X241514Y167114D02*Y163914D01*
X239914Y165514D02*X243114D01*
X241514Y207114D02*Y203914D01*
X239914Y205514D02*X243114D01*
X240500Y270600D02*Y267400D01*
X238900Y269000D02*X242100D01*
X230500Y270600D02*Y267400D01*
X228900Y269000D02*X232100D01*
X220500Y270600D02*Y267400D01*
X218900Y269000D02*X222100D01*
X210500Y270600D02*Y267400D01*
X208900Y269000D02*X212100D01*
X200500Y270600D02*Y267400D01*
X198900Y269000D02*X202100D01*
X190500Y270600D02*Y267400D01*
X188900Y269000D02*X192100D01*
X180500Y270600D02*Y267400D01*
X178900Y269000D02*X182100D01*
X170500Y270600D02*Y267400D01*
X168900Y269000D02*X172100D01*
X190500Y80600D02*Y77400D01*
X188900Y79000D02*X192100D01*
X200500Y80600D02*Y77400D01*
X198900Y79000D02*X202100D01*
X210500Y80600D02*Y77400D01*
X208900Y79000D02*X212100D01*
X220500Y80600D02*Y77400D01*
X218900Y79000D02*X222100D01*
X230500Y80600D02*Y77400D01*
X228900Y79000D02*X232100D01*
X240500Y80600D02*Y77400D01*
X238900Y79000D02*X242100D01*
X45888Y84712D02*Y81512D01*
X44288Y83112D02*X47488D01*
X35888Y84712D02*Y81512D01*
X34288Y83112D02*X37488D01*
X58612Y84488D02*Y81288D01*
X57012Y82888D02*X60212D01*
X68612Y84488D02*Y81288D01*
X67012Y82888D02*X70212D01*
X63500Y101100D02*Y97900D01*
X61900Y99500D02*X65100D01*
X63500Y111100D02*Y107900D01*
X61900Y109500D02*X65100D01*
X23388Y84712D02*Y81512D01*
X21788Y83112D02*X24988D01*
X13388Y84712D02*Y81512D01*
X11788Y83112D02*X14988D01*
X41000Y101100D02*Y97900D01*
X39400Y99500D02*X42600D01*
X41000Y111100D02*Y107900D01*
X39400Y109500D02*X42600D01*
X18500Y101100D02*Y97900D01*
X16900Y99500D02*X20100D01*
X18500Y111100D02*Y107900D01*
X16900Y109500D02*X20100D01*
X83500Y116100D02*Y112900D01*
X81900Y114500D02*X85100D01*
X83500Y106100D02*Y102900D01*
X81900Y104500D02*X85100D01*
X83500Y96100D02*Y92900D01*
X81900Y94500D02*X85100D01*
X58388Y233988D02*Y230788D01*
X56788Y232388D02*X59988D01*
X58388Y223988D02*Y220788D01*
X56788Y222388D02*X59988D01*
X71986Y215086D02*Y211886D01*
X70386Y213486D02*X73586D01*
X71986Y175086D02*Y171886D01*
X70386Y173486D02*X73586D01*
X60000Y175100D02*Y171900D01*
X58400Y173500D02*X61600D01*
X60000Y185100D02*Y181900D01*
X58400Y183500D02*X61600D01*
X176388Y212488D02*Y209288D01*
X174788Y210888D02*X177988D01*
X176388Y202488D02*Y199288D01*
X174788Y200888D02*X177988D01*
X42500Y174100D02*Y170900D01*
X40900Y172500D02*X44100D01*
X42500Y184100D02*Y180900D01*
X40900Y182500D02*X44100D01*
X42500Y194100D02*Y190900D01*
X40900Y192500D02*X44100D01*
X42500Y204100D02*Y200900D01*
X40900Y202500D02*X44100D01*
X42500Y214100D02*Y210900D01*
X40900Y212500D02*X44100D01*
X42500Y224100D02*Y220900D01*
X40900Y222500D02*X44100D01*
X32000Y236600D02*Y233400D01*
X30400Y235000D02*X33600D01*
X32000Y256600D02*Y253400D01*
X30400Y255000D02*X33600D01*
X22500Y271600D02*Y268400D01*
X20900Y270000D02*X24100D01*
X32500Y271600D02*Y268400D01*
X30900Y270000D02*X34100D01*
X32500Y281600D02*Y278400D01*
X30900Y280000D02*X34100D01*
X22500Y281600D02*Y278400D01*
X20900Y280000D02*X24100D01*
X12500Y281600D02*Y278400D01*
X10900Y280000D02*X14100D01*
X12500Y271600D02*Y268400D01*
X10900Y270000D02*X14100D01*
X71000Y339600D02*Y336400D01*
X69400Y338000D02*X72600D01*
X81000Y339600D02*Y336400D01*
X79400Y338000D02*X82600D01*
X91000Y339600D02*Y336400D01*
X89400Y338000D02*X92600D01*
X101000Y339600D02*Y336400D01*
X99400Y338000D02*X102600D01*
X111000Y339600D02*Y336400D01*
X109400Y338000D02*X112600D01*
X121000Y339600D02*Y336400D01*
X119400Y338000D02*X122600D01*
X131000Y339600D02*Y336400D01*
X129400Y338000D02*X132600D01*
X141000Y339600D02*Y336400D01*
X139400Y338000D02*X142600D01*
X151000Y339600D02*Y336400D01*
X149400Y338000D02*X152600D01*
X161000Y339600D02*Y336400D01*
X159400Y338000D02*X162600D01*
X171000Y339600D02*Y336400D01*
X169400Y338000D02*X172600D01*
X71000Y329600D02*Y326400D01*
X69400Y328000D02*X72600D01*
X81000Y329600D02*Y326400D01*
X79400Y328000D02*X82600D01*
X91000Y329600D02*Y326400D01*
X89400Y328000D02*X92600D01*
X101000Y329600D02*Y326400D01*
X99400Y328000D02*X102600D01*
X111000Y329600D02*Y326400D01*
X109400Y328000D02*X112600D01*
X121000Y329600D02*Y326400D01*
X119400Y328000D02*X122600D01*
X131000Y329600D02*Y326400D01*
X129400Y328000D02*X132600D01*
X141000Y329600D02*Y326400D01*
X139400Y328000D02*X142600D01*
X151000Y329600D02*Y326400D01*
X149400Y328000D02*X152600D01*
X161000Y329600D02*Y326400D01*
X159400Y328000D02*X162600D01*
X171000Y329600D02*Y326400D01*
X169400Y328000D02*X172600D01*
X71000Y319600D02*Y316400D01*
X69400Y318000D02*X72600D01*
X81000Y319600D02*Y316400D01*
X79400Y318000D02*X82600D01*
X91000Y319600D02*Y316400D01*
X89400Y318000D02*X92600D01*
X101000Y319600D02*Y316400D01*
X99400Y318000D02*X102600D01*
X111000Y319600D02*Y316400D01*
X109400Y318000D02*X112600D01*
X121000Y319600D02*Y316400D01*
X119400Y318000D02*X122600D01*
X131000Y319600D02*Y316400D01*
X129400Y318000D02*X132600D01*
X141000Y319600D02*Y316400D01*
X139400Y318000D02*X142600D01*
X151000Y319600D02*Y316400D01*
X149400Y318000D02*X152600D01*
X161000Y319600D02*Y316400D01*
X159400Y318000D02*X162600D01*
X171000Y319600D02*Y316400D01*
X169400Y318000D02*X172600D01*
X211000Y339600D02*Y336400D01*
X209400Y338000D02*X212600D01*
X211000Y329600D02*Y326400D01*
X209400Y328000D02*X212600D01*
X211000Y319600D02*Y316400D01*
X209400Y318000D02*X212600D01*
X181000Y339600D02*Y336400D01*
X179400Y338000D02*X182600D01*
X181000Y329600D02*Y326400D01*
X179400Y328000D02*X182600D01*
X181000Y319600D02*Y316400D01*
X179400Y318000D02*X182600D01*
X191000Y339600D02*Y336400D01*
X189400Y338000D02*X192600D01*
X191000Y329600D02*Y326400D01*
X189400Y328000D02*X192600D01*
X191000Y319600D02*Y316400D01*
X189400Y318000D02*X192600D01*
X201000Y339600D02*Y336400D01*
X199400Y338000D02*X202600D01*
X201000Y329600D02*Y326400D01*
X199400Y328000D02*X202600D01*
X201000Y319600D02*Y316400D01*
X199400Y318000D02*X202600D01*
X223000Y339600D02*Y336400D01*
X221400Y338000D02*X224600D01*
X223000Y329600D02*Y326400D01*
X221400Y328000D02*X224600D01*
X223000Y319600D02*Y316400D01*
X221400Y318000D02*X224600D01*
X227000Y32100D02*Y28900D01*
X225400Y30500D02*X228600D01*
X227000Y22100D02*Y18900D01*
X225400Y20500D02*X228600D01*
X227000Y12100D02*Y8900D01*
X225400Y10500D02*X228600D01*
X23500Y306600D02*Y303400D01*
X21900Y305000D02*X25100D01*
X23500Y316600D02*Y313400D01*
X21900Y315000D02*X25100D01*
X13500Y306600D02*Y303400D01*
X11900Y305000D02*X15100D01*
X13500Y316600D02*Y313400D01*
X11900Y315000D02*X15100D01*
X11000Y292600D02*Y289400D01*
X9400Y291000D02*X12600D01*
X51000Y292600D02*Y289400D01*
X49400Y291000D02*X52600D01*
X47500Y304600D02*Y301400D01*
X45900Y303000D02*X49100D01*
X37500Y304600D02*Y301400D01*
X35900Y303000D02*X39100D01*
X34000Y9600D02*Y6400D01*
X32400Y8000D02*X35600D01*
X34000Y19600D02*Y16400D01*
X32400Y18000D02*X35600D01*
X34000Y29600D02*Y26400D01*
X32400Y28000D02*X35600D01*
X215000Y12100D02*Y8900D01*
X213400Y10500D02*X216600D01*
X205000Y12100D02*Y8900D01*
X203400Y10500D02*X206600D01*
X195000Y12100D02*Y8900D01*
X193400Y10500D02*X196600D01*
X185000Y12100D02*Y8900D01*
X183400Y10500D02*X186600D01*
X175000Y12100D02*Y8900D01*
X173400Y10500D02*X176600D01*
X165000Y12100D02*Y8900D01*
X163400Y10500D02*X166600D01*
X155000Y12100D02*Y8900D01*
X153400Y10500D02*X156600D01*
X145000Y12100D02*Y8900D01*
X143400Y10500D02*X146600D01*
X135000Y12100D02*Y8900D01*
X133400Y10500D02*X136600D01*
X125000Y12100D02*Y8900D01*
X123400Y10500D02*X126600D01*
X115000Y12100D02*Y8900D01*
X113400Y10500D02*X116600D01*
X105000Y12100D02*Y8900D01*
X103400Y10500D02*X106600D01*
X215000Y22100D02*Y18900D01*
X213400Y20500D02*X216600D01*
X205000Y22100D02*Y18900D01*
X203400Y20500D02*X206600D01*
X195000Y22100D02*Y18900D01*
X193400Y20500D02*X196600D01*
X185000Y22100D02*Y18900D01*
X183400Y20500D02*X186600D01*
X175000Y22100D02*Y18900D01*
X173400Y20500D02*X176600D01*
X165000Y22100D02*Y18900D01*
X163400Y20500D02*X166600D01*
X155000Y22100D02*Y18900D01*
X153400Y20500D02*X156600D01*
X145000Y22100D02*Y18900D01*
X143400Y20500D02*X146600D01*
X135000Y22100D02*Y18900D01*
X133400Y20500D02*X136600D01*
X125000Y22100D02*Y18900D01*
X123400Y20500D02*X126600D01*
X115000Y22100D02*Y18900D01*
X113400Y20500D02*X116600D01*
X105000Y22100D02*Y18900D01*
X103400Y20500D02*X106600D01*
X215000Y32100D02*Y28900D01*
X213400Y30500D02*X216600D01*
X205000Y32100D02*Y28900D01*
X203400Y30500D02*X206600D01*
X195000Y32100D02*Y28900D01*
X193400Y30500D02*X196600D01*
X185000Y32100D02*Y28900D01*
X183400Y30500D02*X186600D01*
X175000Y32100D02*Y28900D01*
X173400Y30500D02*X176600D01*
X165000Y32100D02*Y28900D01*
X163400Y30500D02*X166600D01*
X155000Y32100D02*Y28900D01*
X153400Y30500D02*X156600D01*
X145000Y32100D02*Y28900D01*
X143400Y30500D02*X146600D01*
X135000Y32100D02*Y28900D01*
X133400Y30500D02*X136600D01*
X125000Y32100D02*Y28900D01*
X123400Y30500D02*X126600D01*
X115000Y32100D02*Y28900D01*
X113400Y30500D02*X116600D01*
X105000Y32100D02*Y28900D01*
X103400Y30500D02*X106600D01*
X226500Y190600D02*Y187400D01*
X224900Y189000D02*X228100D01*
X216500Y190600D02*Y187400D01*
X214900Y189000D02*X218100D01*
X206500Y190600D02*Y187400D01*
X204900Y189000D02*X208100D01*
X196500Y190600D02*Y187400D01*
X194900Y189000D02*X198100D01*
X186500Y190600D02*Y187400D01*
X184900Y189000D02*X188100D01*
X176500Y190600D02*Y187400D01*
X174900Y189000D02*X178100D01*
X166500Y190600D02*Y187400D01*
X164900Y189000D02*X168100D01*
X156500Y190600D02*Y187400D01*
X154900Y189000D02*X158100D01*
X146500Y190600D02*Y187400D01*
X144900Y189000D02*X148100D01*
X136500Y190600D02*Y187400D01*
X134900Y189000D02*X138100D01*
X126500Y190600D02*Y187400D01*
X124900Y189000D02*X128100D01*
X116500Y190600D02*Y187400D01*
X114900Y189000D02*X118100D01*
X106500Y190600D02*Y187400D01*
X104900Y189000D02*X108100D01*
X96500Y190600D02*Y187400D01*
X94900Y189000D02*X98100D01*
X96500Y160600D02*Y157400D01*
X94900Y159000D02*X98100D01*
X106500Y160600D02*Y157400D01*
X104900Y159000D02*X108100D01*
X116500Y160600D02*Y157400D01*
X114900Y159000D02*X118100D01*
X126500Y160600D02*Y157400D01*
X124900Y159000D02*X128100D01*
X136500Y160600D02*Y157400D01*
X134900Y159000D02*X138100D01*
X146500Y160600D02*Y157400D01*
X144900Y159000D02*X148100D01*
X156500Y160600D02*Y157400D01*
X154900Y159000D02*X158100D01*
X166500Y160600D02*Y157400D01*
X164900Y159000D02*X168100D01*
X176500Y160600D02*Y157400D01*
X174900Y159000D02*X178100D01*
X186500Y160600D02*Y157400D01*
X184900Y159000D02*X188100D01*
X196500Y160600D02*Y157400D01*
X194900Y159000D02*X198100D01*
X206500Y160600D02*Y157400D01*
X204900Y159000D02*X208100D01*
X216500Y160600D02*Y157400D01*
X214900Y159000D02*X218100D01*
X226500Y160600D02*Y157400D01*
X224900Y159000D02*X228100D01*
X164388Y212488D02*Y209288D01*
X162788Y210888D02*X165988D01*
X164388Y202488D02*Y199288D01*
X162788Y200888D02*X165988D01*
X118388Y212488D02*Y209288D01*
X116788Y210888D02*X119988D01*
X118388Y202488D02*Y199288D01*
X116788Y200888D02*X119988D01*
X151500Y207600D02*Y204400D01*
X149900Y206000D02*X153100D01*
X131500Y207600D02*Y204400D01*
X129900Y206000D02*X133100D01*
X141500Y207600D02*Y204400D01*
X139900Y206000D02*X143100D01*
X15000Y406350D02*Y403150D01*
X13400Y404750D02*X16600D01*
X135000Y407000D02*X136500Y404000D01*
X138000Y407000D01*
X136500Y404000D02*Y401000D01*
X139800Y404300D02*X142050D01*
X139800Y401000D02*X142800D01*
X139800Y407000D02*Y401000D01*
Y407000D02*X142800D01*
X147600D02*X148350Y406250D01*
X145350Y407000D02*X147600D01*
X144600Y406250D02*X145350Y407000D01*
X144600Y406250D02*Y404750D01*
X145350Y404000D01*
X147600D01*
X148350Y403250D01*
Y401750D01*
X147600Y401000D02*X148350Y401750D01*
X145350Y401000D02*X147600D01*
X144600Y401750D02*X145350Y401000D01*
X98000Y406250D02*X98750Y407000D01*
X101000D01*
X101750Y406250D01*
Y404750D01*
X98000Y401000D02*X101750Y404750D01*
X98000Y401000D02*X101750D01*
X103550Y405800D02*X104750Y407000D01*
Y401000D01*
X103550D02*X105800D01*
X107600Y401750D02*X108350Y401000D01*
X107600Y406250D02*Y401750D01*
Y406250D02*X108350Y407000D01*
X109850D01*
X110600Y406250D01*
Y401750D01*
X109850Y401000D02*X110600Y401750D01*
X108350Y401000D02*X109850D01*
X107600Y402500D02*X110600Y405500D01*
X45000Y401750D02*X45750Y401000D01*
X45000Y406250D02*Y401750D01*
Y406250D02*X45750Y407000D01*
X47250D01*
X48000Y406250D01*
Y401750D01*
X47250Y401000D02*X48000Y401750D01*
X45750Y401000D02*X47250D01*
X45000Y402500D02*X48000Y405500D01*
X49800Y401000D02*X50550D01*
X52350Y401750D02*X53100Y401000D01*
X52350Y406250D02*Y401750D01*
Y406250D02*X53100Y407000D01*
X54600D01*
X55350Y406250D01*
Y401750D01*
X54600Y401000D02*X55350Y401750D01*
X53100Y401000D02*X54600D01*
X52350Y402500D02*X55350Y405500D01*
X57150Y406250D02*X57900Y407000D01*
X59400D01*
X60150Y406250D01*
X59400Y401000D02*X60150Y401750D01*
X57900Y401000D02*X59400D01*
X57150Y401750D02*X57900Y401000D01*
Y404300D02*X59400D01*
X60150Y406250D02*Y405050D01*
Y403550D02*Y401750D01*
Y403550D02*X59400Y404300D01*
X60150Y405050D02*X59400Y404300D01*
X61950Y407000D02*X64950D01*
X61950D02*Y404000D01*
X62700Y404750D01*
X64200D01*
X64950Y404000D01*
Y401750D01*
X64200Y401000D02*X64950Y401750D01*
X62700Y401000D02*X64200D01*
X61950Y401750D02*X62700Y401000D01*
X227500Y281500D02*Y279900D01*
Y281500D02*X228887Y282300D01*
X227500Y281500D02*X226113Y282300D01*
X72000Y188000D02*Y186400D01*
Y188000D02*X73387Y188800D01*
X72000Y188000D02*X70613Y188800D01*
X101500Y180500D02*Y178900D01*
Y180500D02*X102887Y181300D01*
X101500Y180500D02*X100113Y181300D01*
X92000Y172500D02*Y170900D01*
Y172500D02*X93387Y173300D01*
X92000Y172500D02*X90613Y173300D01*
X91500Y168500D02*Y166900D01*
Y168500D02*X92887Y169300D01*
X91500Y168500D02*X90113Y169300D01*
X114000Y172500D02*Y170900D01*
Y172500D02*X115387Y173300D01*
X114000Y172500D02*X112613Y173300D01*
X124000Y168500D02*Y166900D01*
Y168500D02*X125387Y169300D01*
X124000Y168500D02*X122613Y169300D01*
X140000Y148500D02*Y146900D01*
Y148500D02*X141387Y149300D01*
X140000Y148500D02*X138613Y149300D01*
X29500Y43500D02*Y41900D01*
Y43500D02*X30887Y44300D01*
X29500Y43500D02*X28113Y44300D01*
X18000Y139500D02*Y137900D01*
Y139500D02*X19387Y140300D01*
X18000Y139500D02*X16613Y140300D01*
X27500Y130000D02*Y128400D01*
Y130000D02*X28887Y130800D01*
X27500Y130000D02*X26113Y130800D01*
X104000Y176500D02*Y174900D01*
Y176500D02*X105387Y177300D01*
X104000Y176500D02*X102613Y177300D01*
X92500Y176500D02*Y174900D01*
Y176500D02*X93887Y177300D01*
X92500Y176500D02*X91113Y177300D01*
X215500Y131000D02*Y129400D01*
Y131000D02*X216887Y131800D01*
X215500Y131000D02*X214113Y131800D01*
X61500Y262000D02*Y260400D01*
Y262000D02*X62887Y262800D01*
X61500Y262000D02*X60113Y262800D01*
X222000Y276000D02*Y274400D01*
Y276000D02*X223387Y276800D01*
X222000Y276000D02*X220613Y276800D01*
X15000Y419750D02*Y418150D01*
Y419750D02*X16387Y420550D01*
X15000Y419750D02*X13613Y420550D01*
X135000Y422000D02*X136500Y419000D01*
X138000Y422000D01*
X136500Y419000D02*Y416000D01*
X139800Y419300D02*X142050D01*
X139800Y416000D02*X142800D01*
X139800Y422000D02*Y416000D01*
Y422000D02*X142800D01*
X147600D02*X148350Y421250D01*
X145350Y422000D02*X147600D01*
X144600Y421250D02*X145350Y422000D01*
X144600Y421250D02*Y419750D01*
X145350Y419000D01*
X147600D01*
X148350Y418250D01*
Y416750D01*
X147600Y416000D02*X148350Y416750D01*
X145350Y416000D02*X147600D01*
X144600Y416750D02*X145350Y416000D01*
X98000Y420800D02*X99200Y422000D01*
Y416000D01*
X98000D02*X100250D01*
X104300Y422000D02*X105050Y421250D01*
X102800Y422000D02*X104300D01*
X102050Y421250D02*X102800Y422000D01*
X102050Y421250D02*Y416750D01*
X102800Y416000D01*
X104300Y419300D02*X105050Y418550D01*
X102050Y419300D02*X104300D01*
X102800Y416000D02*X104300D01*
X105050Y416750D01*
Y418550D02*Y416750D01*
X45000D02*X45750Y416000D01*
X45000Y421250D02*Y416750D01*
Y421250D02*X45750Y422000D01*
X47250D01*
X48000Y421250D01*
Y416750D01*
X47250Y416000D02*X48000Y416750D01*
X45750Y416000D02*X47250D01*
X45000Y417500D02*X48000Y420500D01*
X49800Y416000D02*X50550D01*
X52350Y416750D02*X53100Y416000D01*
X52350Y421250D02*Y416750D01*
Y421250D02*X53100Y422000D01*
X54600D01*
X55350Y421250D01*
Y416750D01*
X54600Y416000D02*X55350Y416750D01*
X53100Y416000D02*X54600D01*
X52350Y417500D02*X55350Y420500D01*
X57150Y420800D02*X58350Y422000D01*
Y416000D01*
X57150D02*X59400D01*
X61200Y421250D02*X61950Y422000D01*
X63450D01*
X64200Y421250D01*
X63450Y416000D02*X64200Y416750D01*
X61950Y416000D02*X63450D01*
X61200Y416750D02*X61950Y416000D01*
Y419300D02*X63450D01*
X64200Y421250D02*Y420050D01*
Y418550D02*Y416750D01*
Y418550D02*X63450Y419300D01*
X64200Y420050D02*X63450Y419300D01*
X3000Y437000D02*X3750Y436250D01*
X750Y437000D02*X3000D01*
X0Y436250D02*X750Y437000D01*
X0Y436250D02*Y434750D01*
X750Y434000D01*
X3000D01*
X3750Y433250D01*
Y431750D01*
X3000Y431000D02*X3750Y431750D01*
X750Y431000D02*X3000D01*
X0Y431750D02*X750Y431000D01*
X5550Y434000D02*Y431750D01*
X6300Y431000D01*
X8550Y434000D02*Y429500D01*
X7800Y428750D02*X8550Y429500D01*
X6300Y428750D02*X7800D01*
X5550Y429500D02*X6300Y428750D01*
Y431000D02*X7800D01*
X8550Y431750D01*
X11100Y433250D02*Y431000D01*
Y433250D02*X11850Y434000D01*
X12600D01*
X13350Y433250D01*
Y431000D01*
Y433250D02*X14100Y434000D01*
X14850D01*
X15600Y433250D01*
Y431000D01*
X10350Y434000D02*X11100Y433250D01*
X17400Y437000D02*Y431000D01*
Y431750D02*X18150Y431000D01*
X19650D01*
X20400Y431750D01*
Y433250D02*Y431750D01*
X19650Y434000D02*X20400Y433250D01*
X18150Y434000D02*X19650D01*
X17400Y433250D02*X18150Y434000D01*
X22200Y433250D02*Y431750D01*
Y433250D02*X22950Y434000D01*
X24450D01*
X25200Y433250D01*
Y431750D01*
X24450Y431000D02*X25200Y431750D01*
X22950Y431000D02*X24450D01*
X22200Y431750D02*X22950Y431000D01*
X27000Y437000D02*Y431750D01*
X27750Y431000D01*
X0Y427750D02*X29250D01*
X41750Y437000D02*Y431000D01*
X43700Y437000D02*X44750Y435950D01*
Y432050D01*
X43700Y431000D02*X44750Y432050D01*
X41000Y431000D02*X43700D01*
X41000Y437000D02*X43700D01*
G54D78*X46550Y435500D02*Y435350D01*
G54D77*Y433250D02*Y431000D01*
X50300Y434000D02*X51050Y433250D01*
X48800Y434000D02*X50300D01*
X48050Y433250D02*X48800Y434000D01*
X48050Y433250D02*Y431750D01*
X48800Y431000D01*
X51050Y434000D02*Y431750D01*
X51800Y431000D01*
X48800D02*X50300D01*
X51050Y431750D01*
X54350Y433250D02*Y431000D01*
Y433250D02*X55100Y434000D01*
X55850D01*
X56600Y433250D01*
Y431000D01*
Y433250D02*X57350Y434000D01*
X58100D01*
X58850Y433250D01*
Y431000D01*
X53600Y434000D02*X54350Y433250D01*
X60650Y431000D02*X61400D01*
X65900Y431750D02*X66650Y431000D01*
X65900Y436250D02*X66650Y437000D01*
X65900Y436250D02*Y431750D01*
X68450Y437000D02*X69950D01*
X69200D02*Y431000D01*
X68450D02*X69950D01*
X72500Y433250D02*Y431000D01*
Y433250D02*X73250Y434000D01*
X74000D01*
X74750Y433250D01*
Y431000D01*
X71750Y434000D02*X72500Y433250D01*
X77300Y434000D02*X79550D01*
X76550Y433250D02*X77300Y434000D01*
X76550Y433250D02*Y431750D01*
X77300Y431000D01*
X79550D01*
X81350Y437000D02*Y431000D01*
Y433250D02*X82100Y434000D01*
X83600D01*
X84350Y433250D01*
Y431000D01*
X86150Y437000D02*X86900Y436250D01*
Y431750D01*
X86150Y431000D02*X86900Y431750D01*
X41000Y427750D02*X88700D01*
X96050Y431000D02*X98000D01*
X95000Y432050D02*X96050Y431000D01*
X95000Y435950D02*Y432050D01*
Y435950D02*X96050Y437000D01*
X98000D01*
X99800Y433250D02*Y431750D01*
Y433250D02*X100550Y434000D01*
X102050D01*
X102800Y433250D01*
Y431750D01*
X102050Y431000D02*X102800Y431750D01*
X100550Y431000D02*X102050D01*
X99800Y431750D02*X100550Y431000D01*
X104600Y434000D02*Y431750D01*
X105350Y431000D01*
X106850D01*
X107600Y431750D01*
Y434000D02*Y431750D01*
X110150Y433250D02*Y431000D01*
Y433250D02*X110900Y434000D01*
X111650D01*
X112400Y433250D01*
Y431000D01*
X109400Y434000D02*X110150Y433250D01*
X114950Y437000D02*Y431750D01*
X115700Y431000D01*
X114200Y434750D02*X115700D01*
X95000Y427750D02*X117200D01*
X130750Y437000D02*Y431000D01*
X130000Y437000D02*X133000D01*
X133750Y436250D01*
Y434750D01*
X133000Y434000D02*X133750Y434750D01*
X130750Y434000D02*X133000D01*
X135550Y437000D02*Y431750D01*
X136300Y431000D01*
X140050Y434000D02*X140800Y433250D01*
X138550Y434000D02*X140050D01*
X137800Y433250D02*X138550Y434000D01*
X137800Y433250D02*Y431750D01*
X138550Y431000D01*
X140800Y434000D02*Y431750D01*
X141550Y431000D01*
X138550D02*X140050D01*
X140800Y431750D01*
X144100Y437000D02*Y431750D01*
X144850Y431000D01*
X143350Y434750D02*X144850D01*
X147100Y431000D02*X149350D01*
X146350Y431750D02*X147100Y431000D01*
X146350Y433250D02*Y431750D01*
Y433250D02*X147100Y434000D01*
X148600D01*
X149350Y433250D01*
X146350Y432500D02*X149350D01*
Y433250D02*Y432500D01*
X154150Y437000D02*Y431000D01*
X153400D02*X154150Y431750D01*
X151900Y431000D02*X153400D01*
X151150Y431750D02*X151900Y431000D01*
X151150Y433250D02*Y431750D01*
Y433250D02*X151900Y434000D01*
X153400D01*
X154150Y433250D01*
X157450Y434000D02*Y433250D01*
Y431750D02*Y431000D01*
X155950Y436250D02*Y435500D01*
Y436250D02*X156700Y437000D01*
X158200D01*
X158950Y436250D01*
Y435500D01*
X157450Y434000D02*X158950Y435500D01*
X130000Y427750D02*X160750D01*
X0Y452000D02*X3000D01*
X1500D02*Y446000D01*
X4800Y452000D02*Y446000D01*
Y448250D02*X5550Y449000D01*
X7050D01*
X7800Y448250D01*
Y446000D01*
X10350D02*X12600D01*
X9600Y446750D02*X10350Y446000D01*
X9600Y448250D02*Y446750D01*
Y448250D02*X10350Y449000D01*
X11850D01*
X12600Y448250D01*
X9600Y447500D02*X12600D01*
Y448250D02*Y447500D01*
X15150Y448250D02*Y446000D01*
Y448250D02*X15900Y449000D01*
X17400D01*
X14400D02*X15150Y448250D01*
X19950Y446000D02*X22200D01*
X19200Y446750D02*X19950Y446000D01*
X19200Y448250D02*Y446750D01*
Y448250D02*X19950Y449000D01*
X21450D01*
X22200Y448250D01*
X19200Y447500D02*X22200D01*
Y448250D02*Y447500D01*
X28950Y449000D02*X29700Y448250D01*
X27450Y449000D02*X28950D01*
X26700Y448250D02*X27450Y449000D01*
X26700Y448250D02*Y446750D01*
X27450Y446000D01*
X29700Y449000D02*Y446750D01*
X30450Y446000D01*
X27450D02*X28950D01*
X29700Y446750D01*
X33000Y448250D02*Y446000D01*
Y448250D02*X33750Y449000D01*
X35250D01*
X32250D02*X33000Y448250D01*
X37800Y446000D02*X40050D01*
X37050Y446750D02*X37800Y446000D01*
X37050Y448250D02*Y446750D01*
Y448250D02*X37800Y449000D01*
X39300D01*
X40050Y448250D01*
X37050Y447500D02*X40050D01*
Y448250D02*Y447500D01*
X44550Y452000D02*X47550D01*
X44550D02*Y449000D01*
X45300Y449750D01*
X46800D01*
X47550Y449000D01*
Y446750D01*
X46800Y446000D02*X47550Y446750D01*
X45300Y446000D02*X46800D01*
X44550Y446750D02*X45300Y446000D01*
X55050Y452000D02*Y446000D01*
X54300D02*X55050Y446750D01*
X52800Y446000D02*X54300D01*
X52050Y446750D02*X52800Y446000D01*
X52050Y448250D02*Y446750D01*
Y448250D02*X52800Y449000D01*
X54300D01*
X55050Y448250D01*
G54D78*X56850Y450500D02*Y450350D01*
G54D77*Y448250D02*Y446000D01*
X59100Y451250D02*Y446000D01*
Y451250D02*X59850Y452000D01*
X60600D01*
X58350Y449000D02*X59850D01*
X62850Y451250D02*Y446000D01*
Y451250D02*X63600Y452000D01*
X64350D01*
X62100Y449000D02*X63600D01*
X66600Y446000D02*X68850D01*
X65850Y446750D02*X66600Y446000D01*
X65850Y448250D02*Y446750D01*
Y448250D02*X66600Y449000D01*
X68100D01*
X68850Y448250D01*
X65850Y447500D02*X68850D01*
Y448250D02*Y447500D01*
X71400Y448250D02*Y446000D01*
Y448250D02*X72150Y449000D01*
X73650D01*
X70650D02*X71400Y448250D01*
X76200Y446000D02*X78450D01*
X75450Y446750D02*X76200Y446000D01*
X75450Y448250D02*Y446750D01*
Y448250D02*X76200Y449000D01*
X77700D01*
X78450Y448250D01*
X75450Y447500D02*X78450D01*
Y448250D02*Y447500D01*
X81000Y448250D02*Y446000D01*
Y448250D02*X81750Y449000D01*
X82500D01*
X83250Y448250D01*
Y446000D01*
X80250Y449000D02*X81000Y448250D01*
X85800Y452000D02*Y446750D01*
X86550Y446000D01*
X85050Y449750D02*X86550D01*
X93750Y452000D02*Y446000D01*
X93000D02*X93750Y446750D01*
X91500Y446000D02*X93000D01*
X90750Y446750D02*X91500Y446000D01*
X90750Y448250D02*Y446750D01*
Y448250D02*X91500Y449000D01*
X93000D01*
X93750Y448250D01*
X96300D02*Y446000D01*
Y448250D02*X97050Y449000D01*
X98550D01*
X95550D02*X96300Y448250D01*
G54D78*X100350Y450500D02*Y450350D01*
G54D77*Y448250D02*Y446000D01*
X101850Y452000D02*Y446750D01*
X102600Y446000D01*
X104100Y452000D02*Y446750D01*
X104850Y446000D01*
X109800D02*X112050D01*
X112800Y446750D01*
X112050Y447500D02*X112800Y446750D01*
X109800Y447500D02*X112050D01*
X109050Y448250D02*X109800Y447500D01*
X109050Y448250D02*X109800Y449000D01*
X112050D01*
X112800Y448250D01*
X109050Y446750D02*X109800Y446000D01*
G54D78*X114600Y450500D02*Y450350D01*
G54D77*Y448250D02*Y446000D01*
X116100Y449000D02*X119100D01*
X116100Y446000D02*X119100Y449000D01*
X116100Y446000D02*X119100D01*
X121650D02*X123900D01*
X120900Y446750D02*X121650Y446000D01*
X120900Y448250D02*Y446750D01*
Y448250D02*X121650Y449000D01*
X123150D01*
X123900Y448250D01*
X120900Y447500D02*X123900D01*
Y448250D02*Y447500D01*
X126450Y446000D02*X128700D01*
X129450Y446750D01*
X128700Y447500D02*X129450Y446750D01*
X126450Y447500D02*X128700D01*
X125700Y448250D02*X126450Y447500D01*
X125700Y448250D02*X126450Y449000D01*
X128700D01*
X129450Y448250D01*
X125700Y446750D02*X126450Y446000D01*
X133950Y449000D02*Y446750D01*
X134700Y446000D01*
X136200D01*
X136950Y446750D01*
Y449000D02*Y446750D01*
X139500Y446000D02*X141750D01*
X142500Y446750D01*
X141750Y447500D02*X142500Y446750D01*
X139500Y447500D02*X141750D01*
X138750Y448250D02*X139500Y447500D01*
X138750Y448250D02*X139500Y449000D01*
X141750D01*
X142500Y448250D01*
X138750Y446750D02*X139500Y446000D01*
X145050D02*X147300D01*
X144300Y446750D02*X145050Y446000D01*
X144300Y448250D02*Y446750D01*
Y448250D02*X145050Y449000D01*
X146550D01*
X147300Y448250D01*
X144300Y447500D02*X147300D01*
Y448250D02*Y447500D01*
X152100Y452000D02*Y446000D01*
X151350D02*X152100Y446750D01*
X149850Y446000D02*X151350D01*
X149100Y446750D02*X149850Y446000D01*
X149100Y448250D02*Y446750D01*
Y448250D02*X149850Y449000D01*
X151350D01*
X152100Y448250D01*
G54D78*X156600Y450500D02*Y450350D01*
G54D77*Y448250D02*Y446000D01*
X158850Y448250D02*Y446000D01*
Y448250D02*X159600Y449000D01*
X160350D01*
X161100Y448250D01*
Y446000D01*
X158100Y449000D02*X158850Y448250D01*
X166350Y452000D02*Y446750D01*
X167100Y446000D01*
X165600Y449750D02*X167100D01*
X168600Y452000D02*Y446000D01*
Y448250D02*X169350Y449000D01*
X170850D01*
X171600Y448250D01*
Y446000D01*
G54D78*X173400Y450500D02*Y450350D01*
G54D77*Y448250D02*Y446000D01*
X175650D02*X177900D01*
X178650Y446750D01*
X177900Y447500D02*X178650Y446750D01*
X175650Y447500D02*X177900D01*
X174900Y448250D02*X175650Y447500D01*
X174900Y448250D02*X175650Y449000D01*
X177900D01*
X178650Y448250D01*
X174900Y446750D02*X175650Y446000D01*
X183150Y452000D02*Y446750D01*
X183900Y446000D01*
X187650Y449000D02*X188400Y448250D01*
X186150Y449000D02*X187650D01*
X185400Y448250D02*X186150Y449000D01*
X185400Y448250D02*Y446750D01*
X186150Y446000D01*
X188400Y449000D02*Y446750D01*
X189150Y446000D01*
X186150D02*X187650D01*
X188400Y446750D01*
X190950Y449000D02*Y446750D01*
X191700Y446000D01*
X193950Y449000D02*Y444500D01*
X193200Y443750D02*X193950Y444500D01*
X191700Y443750D02*X193200D01*
X190950Y444500D02*X191700Y443750D01*
Y446000D02*X193200D01*
X193950Y446750D01*
X195750Y448250D02*Y446750D01*
Y448250D02*X196500Y449000D01*
X198000D01*
X198750Y448250D01*
Y446750D01*
X198000Y446000D02*X198750Y446750D01*
X196500Y446000D02*X198000D01*
X195750Y446750D02*X196500Y446000D01*
X200550Y449000D02*Y446750D01*
X201300Y446000D01*
X202800D01*
X203550Y446750D01*
Y449000D02*Y446750D01*
X206100Y452000D02*Y446750D01*
X206850Y446000D01*
X205350Y449750D02*X206850D01*
X208350Y444500D02*X209850Y446000D01*
X214350Y451250D02*X215100Y452000D01*
X217350D01*
X218100Y451250D01*
Y449750D01*
X214350Y446000D02*X218100Y449750D01*
X214350Y446000D02*X218100D01*
X220650D02*X223650Y452000D01*
X219900D02*X223650D01*
X225450Y451250D02*X226200Y452000D01*
X228450D01*
X229200Y451250D01*
Y449750D01*
X225450Y446000D02*X229200Y449750D01*
X225450Y446000D02*X229200D01*
X233700Y452000D02*Y446000D01*
Y448250D02*X234450Y449000D01*
X235950D01*
X236700Y448250D01*
Y446000D01*
X238500Y448250D02*Y446750D01*
Y448250D02*X239250Y449000D01*
X240750D01*
X241500Y448250D01*
Y446750D01*
X240750Y446000D02*X241500Y446750D01*
X239250Y446000D02*X240750D01*
X238500Y446750D02*X239250Y446000D01*
X243300Y452000D02*Y446750D01*
X244050Y446000D01*
X246300D02*X248550D01*
X245550Y446750D02*X246300Y446000D01*
X245550Y448250D02*Y446750D01*
Y448250D02*X246300Y449000D01*
X247800D01*
X248550Y448250D01*
X245550Y447500D02*X248550D01*
Y448250D02*Y447500D01*
X251100Y446000D02*X253350D01*
X254100Y446750D01*
X253350Y447500D02*X254100Y446750D01*
X251100Y447500D02*X253350D01*
X250350Y448250D02*X251100Y447500D01*
X250350Y448250D02*X251100Y449000D01*
X253350D01*
X254100Y448250D01*
X250350Y446750D02*X251100Y446000D01*
X259350Y452000D02*Y446750D01*
X260100Y446000D01*
X258600Y449750D02*X260100D01*
X261600Y448250D02*Y446750D01*
Y448250D02*X262350Y449000D01*
X263850D01*
X264600Y448250D01*
Y446750D01*
X263850Y446000D02*X264600Y446750D01*
X262350Y446000D02*X263850D01*
X261600Y446750D02*X262350Y446000D01*
X267150Y452000D02*Y446750D01*
X267900Y446000D01*
X266400Y449750D02*X267900D01*
X271650Y449000D02*X272400Y448250D01*
X270150Y449000D02*X271650D01*
X269400Y448250D02*X270150Y449000D01*
X269400Y448250D02*Y446750D01*
X270150Y446000D01*
X272400Y449000D02*Y446750D01*
X273150Y446000D01*
X270150D02*X271650D01*
X272400Y446750D01*
X274950Y452000D02*Y446750D01*
X275700Y446000D01*
G54D79*X244500Y1000D02*X14000D01*
X258500Y334000D02*Y15000D01*
X13500Y347500D02*X245500D01*
X1500Y14500D02*Y334500D01*
X1000Y334000D02*G75*G02X14500Y347500I13500J0D01*G01*
X244500D02*G75*G02X258500Y333500I0J-14000D01*G01*
X244500Y1000D02*G75*G03X258500Y15000I0J14000D01*G01*
X14500Y1000D02*G75*G02X1000Y14500I0J13500D01*G01*
G54D77*X43425Y-9500D02*X46425D01*
X47175Y-8750D01*
Y-6950D02*Y-8750D01*
X46425Y-6200D02*X47175Y-6950D01*
X44175Y-6200D02*X46425D01*
X44175Y-3500D02*Y-9500D01*
X43425Y-3500D02*X46425D01*
X47175Y-4250D01*
Y-5450D01*
X46425Y-6200D02*X47175Y-5450D01*
X48975Y-7250D02*Y-8750D01*
Y-7250D02*X49725Y-6500D01*
X51225D01*
X51975Y-7250D01*
Y-8750D01*
X51225Y-9500D02*X51975Y-8750D01*
X49725Y-9500D02*X51225D01*
X48975Y-8750D02*X49725Y-9500D01*
X56025Y-6500D02*X56775Y-7250D01*
X54525Y-6500D02*X56025D01*
X53775Y-7250D02*X54525Y-6500D01*
X53775Y-7250D02*Y-8750D01*
X54525Y-9500D01*
X56775Y-6500D02*Y-8750D01*
X57525Y-9500D01*
X54525D02*X56025D01*
X56775Y-8750D01*
X60075Y-7250D02*Y-9500D01*
Y-7250D02*X60825Y-6500D01*
X62325D01*
X59325D02*X60075Y-7250D01*
X67125Y-3500D02*Y-9500D01*
X66375D02*X67125Y-8750D01*
X64875Y-9500D02*X66375D01*
X64125Y-8750D02*X64875Y-9500D01*
X64125Y-7250D02*Y-8750D01*
Y-7250D02*X64875Y-6500D01*
X66375D01*
X67125Y-7250D01*
X71625D02*Y-8750D01*
Y-7250D02*X72375Y-6500D01*
X73875D01*
X74625Y-7250D01*
Y-8750D01*
X73875Y-9500D02*X74625Y-8750D01*
X72375Y-9500D02*X73875D01*
X71625Y-8750D02*X72375Y-9500D01*
X76425Y-6500D02*Y-8750D01*
X77175Y-9500D01*
X78675D01*
X79425Y-8750D01*
Y-6500D02*Y-8750D01*
X81975Y-3500D02*Y-8750D01*
X82725Y-9500D01*
X81225Y-5750D02*X82725D01*
X84225Y-3500D02*Y-8750D01*
X84975Y-9500D01*
G54D78*X86475Y-5000D02*Y-5150D01*
G54D77*Y-7250D02*Y-9500D01*
X88725Y-7250D02*Y-9500D01*
Y-7250D02*X89475Y-6500D01*
X90225D01*
X90975Y-7250D01*
Y-9500D01*
X87975Y-6500D02*X88725Y-7250D01*
X93525Y-9500D02*X95775D01*
X92775Y-8750D02*X93525Y-9500D01*
X92775Y-7250D02*Y-8750D01*
Y-7250D02*X93525Y-6500D01*
X95025D01*
X95775Y-7250D01*
X92775Y-8000D02*X95775D01*
Y-7250D02*Y-8000D01*
G54D78*X100275Y-5000D02*Y-5150D01*
G54D77*Y-7250D02*Y-9500D01*
X102525D02*X104775D01*
X105525Y-8750D01*
X104775Y-8000D02*X105525Y-8750D01*
X102525Y-8000D02*X104775D01*
X101775Y-7250D02*X102525Y-8000D01*
X101775Y-7250D02*X102525Y-6500D01*
X104775D01*
X105525Y-7250D01*
X101775Y-8750D02*X102525Y-9500D01*
X110775Y-3500D02*Y-8750D01*
X111525Y-9500D01*
X110025Y-5750D02*X111525D01*
X113025Y-3500D02*Y-9500D01*
Y-7250D02*X113775Y-6500D01*
X115275D01*
X116025Y-7250D01*
Y-9500D01*
X118575D02*X120825D01*
X117825Y-8750D02*X118575Y-9500D01*
X117825Y-7250D02*Y-8750D01*
Y-7250D02*X118575Y-6500D01*
X120075D01*
X120825Y-7250D01*
X117825Y-8000D02*X120825D01*
Y-7250D02*Y-8000D01*
X126075Y-6500D02*X128325D01*
X125325Y-7250D02*X126075Y-6500D01*
X125325Y-7250D02*Y-8750D01*
X126075Y-9500D01*
X128325D01*
X130875D02*X133125D01*
X130125Y-8750D02*X130875Y-9500D01*
X130125Y-7250D02*Y-8750D01*
Y-7250D02*X130875Y-6500D01*
X132375D01*
X133125Y-7250D01*
X130125Y-8000D02*X133125D01*
Y-7250D02*Y-8000D01*
X135675Y-7250D02*Y-9500D01*
Y-7250D02*X136425Y-6500D01*
X137175D01*
X137925Y-7250D01*
Y-9500D01*
X134925Y-6500D02*X135675Y-7250D01*
X140475Y-3500D02*Y-8750D01*
X141225Y-9500D01*
X139725Y-5750D02*X141225D01*
X143475Y-9500D02*X145725D01*
X142725Y-8750D02*X143475Y-9500D01*
X142725Y-7250D02*Y-8750D01*
Y-7250D02*X143475Y-6500D01*
X144975D01*
X145725Y-7250D01*
X142725Y-8000D02*X145725D01*
Y-7250D02*Y-8000D01*
X148275Y-7250D02*Y-9500D01*
Y-7250D02*X149025Y-6500D01*
X150525D01*
X147525D02*X148275Y-7250D01*
X152325Y-3500D02*Y-8750D01*
X153075Y-9500D01*
G54D78*X154575Y-5000D02*Y-5150D01*
G54D77*Y-7250D02*Y-9500D01*
X156825Y-7250D02*Y-9500D01*
Y-7250D02*X157575Y-6500D01*
X158325D01*
X159075Y-7250D01*
Y-9500D01*
X156075Y-6500D02*X156825Y-7250D01*
X161625Y-9500D02*X163875D01*
X160875Y-8750D02*X161625Y-9500D01*
X160875Y-7250D02*Y-8750D01*
Y-7250D02*X161625Y-6500D01*
X163125D01*
X163875Y-7250D01*
X160875Y-8000D02*X163875D01*
Y-7250D02*Y-8000D01*
X168375Y-7250D02*Y-8750D01*
Y-7250D02*X169125Y-6500D01*
X170625D01*
X171375Y-7250D01*
Y-8750D01*
X170625Y-9500D02*X171375Y-8750D01*
X169125Y-9500D02*X170625D01*
X168375Y-8750D02*X169125Y-9500D01*
X173925Y-4250D02*Y-9500D01*
Y-4250D02*X174675Y-3500D01*
X175425D01*
X173175Y-6500D02*X174675D01*
X180375Y-3500D02*Y-8750D01*
X181125Y-9500D01*
X179625Y-5750D02*X181125D01*
X182625Y-3500D02*Y-9500D01*
Y-7250D02*X183375Y-6500D01*
X184875D01*
X185625Y-7250D01*
Y-9500D01*
G54D78*X187425Y-5000D02*Y-5150D01*
G54D77*Y-7250D02*Y-9500D01*
X189675D02*X191925D01*
X192675Y-8750D01*
X191925Y-8000D02*X192675Y-8750D01*
X189675Y-8000D02*X191925D01*
X188925Y-7250D02*X189675Y-8000D01*
X188925Y-7250D02*X189675Y-6500D01*
X191925D01*
X192675Y-7250D01*
X188925Y-8750D02*X189675Y-9500D01*
X197925Y-7250D02*Y-11750D01*
X197175Y-6500D02*X197925Y-7250D01*
X198675Y-6500D01*
X200175D01*
X200925Y-7250D01*
Y-8750D01*
X200175Y-9500D02*X200925Y-8750D01*
X198675Y-9500D02*X200175D01*
X197925Y-8750D02*X198675Y-9500D01*
X204975Y-6500D02*X205725Y-7250D01*
X203475Y-6500D02*X204975D01*
X202725Y-7250D02*X203475Y-6500D01*
X202725Y-7250D02*Y-8750D01*
X203475Y-9500D01*
X205725Y-6500D02*Y-8750D01*
X206475Y-9500D01*
X203475D02*X204975D01*
X205725Y-8750D01*
X209025Y-3500D02*Y-8750D01*
X209775Y-9500D01*
X208275Y-5750D02*X209775D01*
X211275Y-3500D02*Y-9500D01*
Y-7250D02*X212025Y-6500D01*
X213525D01*
X214275Y-7250D01*
Y-9500D01*
X200750Y377000D02*Y371000D01*
X202700Y377000D02*X203750Y375950D01*
Y372050D01*
X202700Y371000D02*X203750Y372050D01*
X200000Y371000D02*X202700D01*
X200000Y377000D02*X202700D01*
X207800Y374000D02*X208550Y373250D01*
X206300Y374000D02*X207800D01*
X205550Y373250D02*X206300Y374000D01*
X205550Y373250D02*Y371750D01*
X206300Y371000D01*
X208550Y374000D02*Y371750D01*
X209300Y371000D01*
X206300D02*X207800D01*
X208550Y371750D01*
X211850Y377000D02*Y371750D01*
X212600Y371000D01*
X211100Y374750D02*X212600D01*
X214850Y371000D02*X217100D01*
X214100Y371750D02*X214850Y371000D01*
X214100Y373250D02*Y371750D01*
Y373250D02*X214850Y374000D01*
X216350D01*
X217100Y373250D01*
X214100Y372500D02*X217100D01*
Y373250D02*Y372500D01*
X218900Y374750D02*X219650D01*
X218900Y373250D02*X219650D01*
X224150Y377000D02*Y371000D01*
Y377000D02*X226400Y374000D01*
X228650Y377000D01*
Y371000D01*
X230450Y373250D02*Y371750D01*
Y373250D02*X231200Y374000D01*
X232700D01*
X233450Y373250D01*
Y371750D01*
X232700Y371000D02*X233450Y371750D01*
X231200Y371000D02*X232700D01*
X230450Y371750D02*X231200Y371000D01*
X236000Y373250D02*Y371000D01*
Y373250D02*X236750Y374000D01*
X237500D01*
X238250Y373250D01*
Y371000D01*
X235250Y374000D02*X236000Y373250D01*
X243800Y377000D02*X245000D01*
Y371750D01*
X244250Y371000D02*X245000Y371750D01*
X243500Y371000D02*X244250D01*
X242750Y371750D02*X243500Y371000D01*
X242750Y372500D02*Y371750D01*
X246800Y374000D02*Y371750D01*
X247550Y371000D01*
X249050D01*
X249800Y371750D01*
Y374000D02*Y371750D01*
X251600Y377000D02*Y371750D01*
X252350Y371000D01*
X256550Y376250D02*X257300Y377000D01*
X258800D01*
X259550Y376250D01*
X258800Y371000D02*X259550Y371750D01*
X257300Y371000D02*X258800D01*
X256550Y371750D02*X257300Y371000D01*
Y374300D02*X258800D01*
X259550Y376250D02*Y375050D01*
Y373550D02*Y371750D01*
Y373550D02*X258800Y374300D01*
X259550Y375050D02*X258800Y374300D01*
X261350Y371750D02*X262100Y371000D01*
X261350Y376250D02*Y371750D01*
Y376250D02*X262100Y377000D01*
X263600D01*
X264350Y376250D01*
Y371750D01*
X263600Y371000D02*X264350Y371750D01*
X262100Y371000D02*X263600D01*
X261350Y372500D02*X264350Y375500D01*
X268850Y375800D02*X270050Y377000D01*
Y371000D01*
X268850D02*X271100D01*
X273650D02*X275900Y374000D01*
Y376250D02*Y374000D01*
X275150Y377000D02*X275900Y376250D01*
X273650Y377000D02*X275150D01*
X272900Y376250D02*X273650Y377000D01*
X272900Y376250D02*Y374750D01*
X273650Y374000D01*
X275900D01*
X277700Y374750D02*X278450D01*
X277700Y373250D02*X278450D01*
X280250Y376250D02*X281000Y377000D01*
X283250D01*
X284000Y376250D01*
Y374750D01*
X280250Y371000D02*X284000Y374750D01*
X280250Y371000D02*X284000D01*
X285800Y371750D02*X286550Y371000D01*
X285800Y376250D02*Y371750D01*
Y376250D02*X286550Y377000D01*
X288050D01*
X288800Y376250D01*
Y371750D01*
X288050Y371000D02*X288800Y371750D01*
X286550Y371000D02*X288050D01*
X285800Y372500D02*X288800Y375500D01*
X290600Y374750D02*X291350D01*
X290600Y373250D02*X291350D01*
X293150Y371750D02*X293900Y371000D01*
X293150Y376250D02*Y371750D01*
Y376250D02*X293900Y377000D01*
X295400D01*
X296150Y376250D01*
Y371750D01*
X295400Y371000D02*X296150Y371750D01*
X293900Y371000D02*X295400D01*
X293150Y372500D02*X296150Y375500D01*
X298700Y371000D02*X301700Y377000D01*
X297950D02*X301700D01*
X306200Y376250D02*X306950Y377000D01*
X309200D01*
X309950Y376250D01*
Y374750D01*
X306200Y371000D02*X309950Y374750D01*
X306200Y371000D02*X309950D01*
X311750Y371750D02*X312500Y371000D01*
X311750Y376250D02*Y371750D01*
Y376250D02*X312500Y377000D01*
X314000D01*
X314750Y376250D01*
Y371750D01*
X314000Y371000D02*X314750Y371750D01*
X312500Y371000D02*X314000D01*
X311750Y372500D02*X314750Y375500D01*
X316550Y375800D02*X317750Y377000D01*
Y371000D01*
X316550D02*X318800D01*
X320600Y376250D02*X321350Y377000D01*
X323600D01*
X324350Y376250D01*
Y374750D01*
X320600Y371000D02*X324350Y374750D01*
X320600Y371000D02*X324350D01*
X328850Y377000D02*Y371750D01*
X329600Y371000D01*
X331100D01*
X331850Y371750D01*
Y377000D02*Y371750D01*
X333650Y377000D02*X336650D01*
X335150D02*Y371000D01*
X339500D02*X341450D01*
X338450Y372050D02*X339500Y371000D01*
X338450Y375950D02*Y372050D01*
Y375950D02*X339500Y377000D01*
X341450D01*
X200000Y390500D02*Y386000D01*
Y390500D02*X201050Y392000D01*
X202700D01*
X203750Y390500D01*
Y386000D01*
X200000Y389000D02*X203750D01*
X205550D02*Y386750D01*
X206300Y386000D01*
X207800D01*
X208550Y386750D01*
Y389000D02*Y386750D01*
X211100Y392000D02*Y386750D01*
X211850Y386000D01*
X210350Y389750D02*X211850D01*
X213350Y392000D02*Y386000D01*
Y388250D02*X214100Y389000D01*
X215600D01*
X216350Y388250D01*
Y386000D01*
X218150Y388250D02*Y386750D01*
Y388250D02*X218900Y389000D01*
X220400D01*
X221150Y388250D01*
Y386750D01*
X220400Y386000D02*X221150Y386750D01*
X218900Y386000D02*X220400D01*
X218150Y386750D02*X218900Y386000D01*
X223700Y388250D02*Y386000D01*
Y388250D02*X224450Y389000D01*
X225950D01*
X222950D02*X223700Y388250D01*
X227750Y389750D02*X228500D01*
X227750Y388250D02*X228500D01*
X233000Y389300D02*X235250D01*
X233000Y386000D02*X236000D01*
X233000Y392000D02*Y386000D01*
Y392000D02*X236000D01*
X238550Y388250D02*Y386000D01*
Y388250D02*X239300Y389000D01*
X240800D01*
X237800D02*X238550Y388250D01*
G54D78*X242600Y390500D02*Y390350D01*
G54D77*Y388250D02*Y386000D01*
X244850Y388250D02*Y386000D01*
Y388250D02*X245600Y389000D01*
X246350D01*
X247100Y388250D01*
Y386000D01*
X244100Y389000D02*X244850Y388250D01*
X251600Y392000D02*Y386000D01*
Y389000D02*X254600Y392000D01*
X251600Y389000D02*X254600Y386000D01*
X257150D02*X259400D01*
X256400Y386750D02*X257150Y386000D01*
X256400Y388250D02*Y386750D01*
Y388250D02*X257150Y389000D01*
X258650D01*
X259400Y388250D01*
X256400Y387500D02*X259400D01*
Y388250D02*Y387500D01*
X261950Y388250D02*Y386000D01*
Y388250D02*X262700Y389000D01*
X263450D01*
X264200Y388250D01*
Y386000D01*
X261200Y389000D02*X261950Y388250D01*
X266750D02*Y386000D01*
Y388250D02*X267500Y389000D01*
X268250D01*
X269000Y388250D01*
Y386000D01*
X266000Y389000D02*X266750Y388250D01*
X271550Y386000D02*X273800D01*
X270800Y386750D02*X271550Y386000D01*
X270800Y388250D02*Y386750D01*
Y388250D02*X271550Y389000D01*
X273050D01*
X273800Y388250D01*
X270800Y387500D02*X273800D01*
Y388250D02*Y387500D01*
X278600Y392000D02*Y386000D01*
X277850D02*X278600Y386750D01*
X276350Y386000D02*X277850D01*
X275600Y386750D02*X276350Y386000D01*
X275600Y388250D02*Y386750D01*
Y388250D02*X276350Y389000D01*
X277850D01*
X278600Y388250D01*
X280400Y389000D02*Y386750D01*
X281150Y386000D01*
X283400Y389000D02*Y384500D01*
X282650Y383750D02*X283400Y384500D01*
X281150Y383750D02*X282650D01*
X280400Y384500D02*X281150Y383750D01*
Y386000D02*X282650D01*
X283400Y386750D01*
X200000Y407000D02*X203000D01*
X201500D02*Y401000D01*
G54D78*X204800Y405500D02*Y405350D01*
G54D77*Y403250D02*Y401000D01*
X207050Y407000D02*Y401750D01*
X207800Y401000D01*
X206300Y404750D02*X207800D01*
X209300Y407000D02*Y401750D01*
X210050Y401000D01*
X212300D02*X214550D01*
X211550Y401750D02*X212300Y401000D01*
X211550Y403250D02*Y401750D01*
Y403250D02*X212300Y404000D01*
X213800D01*
X214550Y403250D01*
X211550Y402500D02*X214550D01*
Y403250D02*Y402500D01*
X216350Y404750D02*X217100D01*
X216350Y403250D02*X217100D01*
X221600Y401750D02*X222350Y401000D01*
X221600Y406250D02*X222350Y407000D01*
X221600Y406250D02*Y401750D01*
X224150Y404000D02*Y401750D01*
X224900Y401000D01*
X226400D01*
X227150Y401750D01*
Y404000D02*Y401750D01*
X229700Y403250D02*Y401000D01*
Y403250D02*X230450Y404000D01*
X231200D01*
X231950Y403250D01*
Y401000D01*
X228950Y404000D02*X229700Y403250D01*
X233750Y407000D02*Y401000D01*
Y403250D02*X236000Y401000D01*
X233750Y403250D02*X235250Y404750D01*
X238550Y403250D02*Y401000D01*
Y403250D02*X239300Y404000D01*
X240050D01*
X240800Y403250D01*
Y401000D01*
X237800Y404000D02*X238550Y403250D01*
X242600D02*Y401750D01*
Y403250D02*X243350Y404000D01*
X244850D01*
X245600Y403250D01*
Y401750D01*
X244850Y401000D02*X245600Y401750D01*
X243350Y401000D02*X244850D01*
X242600Y401750D02*X243350Y401000D01*
X247400Y404000D02*Y401750D01*
X248150Y401000D01*
X248900D01*
X249650Y401750D01*
Y404000D02*Y401750D01*
X250400Y401000D01*
X251150D01*
X251900Y401750D01*
Y404000D02*Y401750D01*
X254450Y403250D02*Y401000D01*
Y403250D02*X255200Y404000D01*
X255950D01*
X256700Y403250D01*
Y401000D01*
X253700Y404000D02*X254450Y403250D01*
X258500Y407000D02*X259250Y406250D01*
Y401750D01*
X258500Y401000D02*X259250Y401750D01*
X263750Y404000D02*X266750D01*
X271250Y407000D02*Y401000D01*
Y407000D02*X274250D01*
X271250Y404300D02*X273500D01*
X278300Y404000D02*X279050Y403250D01*
X276800Y404000D02*X278300D01*
X276050Y403250D02*X276800Y404000D01*
X276050Y403250D02*Y401750D01*
X276800Y401000D01*
X279050Y404000D02*Y401750D01*
X279800Y401000D01*
X276800D02*X278300D01*
X279050Y401750D01*
X281600Y407000D02*Y401000D01*
Y401750D02*X282350Y401000D01*
X283850D01*
X284600Y401750D01*
Y403250D02*Y401750D01*
X283850Y404000D02*X284600Y403250D01*
X282350Y404000D02*X283850D01*
X281600Y403250D02*X282350Y404000D01*
X287150Y403250D02*Y401000D01*
Y403250D02*X287900Y404000D01*
X289400D01*
X286400D02*X287150Y403250D01*
G54D78*X291200Y405500D02*Y405350D01*
G54D77*Y403250D02*Y401000D01*
X293450Y404000D02*X295700D01*
X292700Y403250D02*X293450Y404000D01*
X292700Y403250D02*Y401750D01*
X293450Y401000D01*
X295700D01*
X299750Y404000D02*X300500Y403250D01*
X298250Y404000D02*X299750D01*
X297500Y403250D02*X298250Y404000D01*
X297500Y403250D02*Y401750D01*
X298250Y401000D01*
X300500Y404000D02*Y401750D01*
X301250Y401000D01*
X298250D02*X299750D01*
X300500Y401750D01*
X303800Y407000D02*Y401750D01*
X304550Y401000D01*
X303050Y404750D02*X304550D01*
G54D78*X306050Y405500D02*Y405350D01*
G54D77*Y403250D02*Y401000D01*
X307550Y403250D02*Y401750D01*
Y403250D02*X308300Y404000D01*
X309800D01*
X310550Y403250D01*
Y401750D01*
X309800Y401000D02*X310550Y401750D01*
X308300Y401000D02*X309800D01*
X307550Y401750D02*X308300Y401000D01*
X313100Y403250D02*Y401000D01*
Y403250D02*X313850Y404000D01*
X314600D01*
X315350Y403250D01*
Y401000D01*
X312350Y404000D02*X313100Y403250D01*
X320600Y407000D02*Y401000D01*
X322550Y407000D02*X323600Y405950D01*
Y402050D01*
X322550Y401000D02*X323600Y402050D01*
X319850Y401000D02*X322550D01*
X319850Y407000D02*X322550D01*
X326150Y403250D02*Y401000D01*
Y403250D02*X326900Y404000D01*
X328400D01*
X325400D02*X326150Y403250D01*
X332450Y404000D02*X333200Y403250D01*
X330950Y404000D02*X332450D01*
X330200Y403250D02*X330950Y404000D01*
X330200Y403250D02*Y401750D01*
X330950Y401000D01*
X333200Y404000D02*Y401750D01*
X333950Y401000D01*
X330950D02*X332450D01*
X333200Y401750D01*
X335750Y404000D02*Y401750D01*
X336500Y401000D01*
X337250D01*
X338000Y401750D01*
Y404000D02*Y401750D01*
X338750Y401000D01*
X339500D01*
X340250Y401750D01*
Y404000D02*Y401750D01*
G54D78*X342050Y405500D02*Y405350D01*
G54D77*Y403250D02*Y401000D01*
X344300Y403250D02*Y401000D01*
Y403250D02*X345050Y404000D01*
X345800D01*
X346550Y403250D01*
Y401000D01*
X343550Y404000D02*X344300Y403250D01*
X350600Y404000D02*X351350Y403250D01*
X349100Y404000D02*X350600D01*
X348350Y403250D02*X349100Y404000D01*
X348350Y403250D02*Y401750D01*
X349100Y401000D01*
X350600D01*
X351350Y401750D01*
X348350Y399500D02*X349100Y398750D01*
X350600D01*
X351350Y399500D01*
Y404000D02*Y399500D01*
M02*
